<svg width="68" height="68" viewBox="0 0 68 68" fill="none" xmlns="http://www.w3.org/2000/svg">
<path d="M57.5676 11.2824L35.0027 3.59258C34.7305 3.49961 34.3652 3.45312 34 3.45312C33.6348 3.45312 33.2695 3.49961 32.9973 3.59258L10.4324 11.2824C9.88125 11.4684 9.42969 12.1059 9.42969 12.6902V44.7246C9.42969 45.309 9.8082 46.0793 10.2664 46.4445L33.1566 64.2812C33.3891 64.4605 33.6879 64.5535 33.9934 64.5535C34.2988 64.5535 34.6043 64.4605 34.8301 64.2812L57.7203 46.4445C58.1785 46.0859 58.557 45.3156 58.557 44.7246V12.6902C58.5703 12.1059 58.1188 11.475 57.5676 11.2824ZM53.7891 43.4496L34 58.8691L14.2109 43.4496V15.0543L34 8.30742L53.7891 15.0543V43.4496Z" fill="#056839"/>
<path d="M14.2109 15.0542V43.4496L34 58.8691L53.7891 43.4496V15.0542L34 8.30737L14.2109 15.0542ZM42.0219 21.7812H45.6875C46.1191 21.7812 46.3715 22.2726 46.1191 22.6246L32.0012 42.0617C31.9019 42.1975 31.772 42.308 31.622 42.3842C31.472 42.4604 31.3061 42.5001 31.1379 42.5001C30.9696 42.5001 30.8038 42.4604 30.6538 42.3842C30.5038 42.308 30.3739 42.1975 30.2746 42.0617L21.8809 30.507C21.6285 30.155 21.8809 29.6636 22.3125 29.6636H25.9781C26.3234 29.6636 26.6422 29.8296 26.8414 30.1019L31.1379 36.0187L41.1586 22.2195C41.3578 21.9472 41.6832 21.7812 42.0219 21.7812Z" fill="white"/>
<path d="M26.8413 30.102C26.6421 29.8297 26.3233 29.6637 25.978 29.6637H22.3124C21.8807 29.6637 21.6284 30.1551 21.8807 30.507L30.2745 42.0617C30.3737 42.1976 30.5036 42.3081 30.6536 42.3843C30.8036 42.4604 30.9695 42.5001 31.1378 42.5001C31.306 42.5001 31.4719 42.4604 31.6219 42.3843C31.7719 42.3081 31.9018 42.1976 32.001 42.0617L46.119 22.6246C46.3713 22.2727 46.119 21.7812 45.6874 21.7812H42.0217C41.6831 21.7812 41.3577 21.9473 41.1585 22.2195L31.1378 36.0188L26.8413 30.102Z" fill="#056839"/>
</svg>
