<svg width="66" height="66" viewBox="0 0 66 66" fill="none" xmlns="http://www.w3.org/2000/svg">
<path d="M18.2217 42.9852C16.4093 40.3024 15.3613 37.1768 15.19 33.9437C15.0187 30.7105 15.7306 27.4917 17.2494 24.6324C18.7682 21.773 21.0365 19.3809 23.8113 17.7126C26.586 16.0443 29.7625 15.1626 33.0002 15.1621M47.7897 23.0257C49.5985 25.7092 50.6432 28.8343 50.8119 32.0661C50.9806 35.2978 50.2669 38.5146 48.7473 41.3719C47.2277 44.2291 44.9594 46.6191 42.1855 48.2859C39.4115 49.9527 36.2364 50.8334 33.0002 50.8337" stroke="white" stroke-width="3" stroke-linecap="round" stroke-linejoin="round"/>
<path d="M33.0002 24.6208L42.2169 15.4041L33.0002 6.1875V24.6208ZM32.9989 41.3792L23.7822 50.5959L32.9989 59.8125V41.3792Z" stroke="white" stroke-width="2" stroke-linecap="round" stroke-linejoin="round"/>
</svg>
