<svg width="68" height="68" viewBox="0 0 68 68" fill="none" xmlns="http://www.w3.org/2000/svg">
<path d="M43.9168 11.3334L60.7751 13.6001L46.8918 27.4834L43.9168 11.3334ZM24.0834 56.6668L7.2251 54.4001L21.1084 40.5168L24.0834 56.6668ZM11.3334 24.0834L13.6001 7.2251L27.4834 21.1084L11.3334 24.0834Z" fill="white"/>
<path d="M13.1752 30.0334L7.22516 31.1667C7.0835 32.1584 7.0835 33.0084 7.0835 34C7.0835 40.5167 9.35016 46.75 13.6002 51.5667L17.8502 47.8834C14.5918 44.0584 12.7502 39.1 12.7502 34C12.7502 32.725 12.8918 31.3084 13.1752 30.0334ZM34.0002 7.08337C26.3502 7.08337 19.5502 10.3417 14.5918 15.4417L18.5585 19.4084C22.5252 15.3 27.9085 12.75 34.0002 12.75C35.2752 12.75 36.6918 12.8917 37.9668 13.175L38.9585 7.65004C37.4002 7.22504 35.7002 7.08337 34.0002 7.08337ZM54.8252 37.9667L60.7752 36.8334C60.9168 35.8417 60.9168 34.9917 60.9168 34C60.9168 27.7667 58.7918 21.675 54.8252 16.8584L50.4335 20.4C53.5502 24.225 55.2502 29.0417 55.2502 33.8584C55.2502 35.275 55.1085 36.6917 54.8252 37.9667ZM49.4418 48.5917C45.4752 52.7 40.0918 55.25 34.0002 55.25C32.7252 55.25 31.3085 55.1084 30.0335 54.825L29.0418 60.35C30.7418 60.6334 32.4418 60.775 34.0002 60.775C41.6502 60.775 48.4502 57.5167 53.4085 52.4167L49.4418 48.5917Z" fill="white"/>
<path d="M56.6666 43.9167L54.3999 60.7751L40.5166 46.8917L56.6666 43.9167Z" fill="white"/>
</svg>
