<svg width="68" height="68" viewBox="0 0 68 68" fill="none" xmlns="http://www.w3.org/2000/svg">
<path d="M33.9997 25.5C39.4765 25.5 43.9163 21.0601 43.9163 15.5833C43.9163 10.1065 39.4765 5.66663 33.9997 5.66663C28.5229 5.66663 24.083 10.1065 24.083 15.5833C24.083 21.0601 28.5229 25.5 33.9997 25.5Z" stroke="white" stroke-width="4" stroke-linecap="round" stroke-linejoin="round"/>
<path d="M5.6665 58.0833C5.6665 45.5642 17.0834 35.4166 31.1665 35.4166M39.6665 41.3666C39.6665 39.855 49.5832 36.8333 49.5832 36.8333C49.5832 36.8333 59.4998 39.855 59.4998 41.3666C59.4998 53.455 49.5832 59.5 49.5832 59.5C49.5832 59.5 39.6665 53.455 39.6665 41.3666Z" stroke="white" stroke-width="4" stroke-linecap="round" stroke-linejoin="round"/>
</svg>
